<?xml version="1.0" encoding="utf-8"?><!DOCTYPE svg PUBLIC "-//W3C//DTD SVG 1.1//EN" "http://www.w3.org/Graphics/SVG/1.1/DTD/svg11.dtd"><svg version="1.1" xmlns="http://www.w3.org/2000/svg" xmlns:xlink="http://www.w3.org/1999/xlink" x="0px" y="0px"	 width="223.94px" height="51.02px" viewBox="0 0 223.94 51.02" enable-background="new 0 0 223.94 51.02" xml:space="preserve" role="img" aria-label="Pandora GS"><title>Pandora GS</title><g>	<path d="M29.516,19.44c0,2.112-0.12,3.824-0.36,5.136c-0.24,1.313-0.656,2.321-1.248,3.024c-0.592,0.704-1.408,1.176-2.448,1.416		c-1.041,0.239-2.36,0.36-3.96,0.36h-5.232v-2.833h4.656c0.704,0,1.296-0.088,1.776-0.264c0.48-0.175,0.856-0.528,1.128-1.056		c0.271-0.528,0.464-1.264,0.576-2.208c0.112-0.944,0.168-2.167,0.168-3.672c0-1.503-0.056-2.736-0.168-3.696		c-0.112-0.96-0.305-1.704-0.576-2.232c-0.272-0.528-0.648-0.888-1.128-1.08s-1.072-0.288-1.776-0.288H14.3v30.768H9.26V9.168H21.5		c1.6,0,2.919,0.136,3.96,0.408c1.04,0.272,1.855,0.785,2.448,1.536c0.592,0.752,1.008,1.8,1.248,3.144		C29.396,15.601,29.516,17.329,29.516,19.44z"/>	<path d="M40.892,26.833v2.784h-2.064c-0.864,0-1.56,0.064-2.088,0.192c-0.528,0.128-0.936,0.328-1.224,0.6		c-0.288,0.272-0.488,0.633-0.6,1.08c-0.112,0.449-0.168,1.008-0.168,1.68v3.072c0,0.736,0.056,1.337,0.168,1.801		c0.112,0.464,0.312,0.84,0.6,1.127c0.288,0.289,0.696,0.488,1.224,0.601c0.528,0.112,1.224,0.168,2.088,0.168h5.424V24.145		c0-1.056-0.056-1.92-0.168-2.592c-0.112-0.672-0.312-1.191-0.6-1.56c-0.288-0.367-0.696-0.616-1.224-0.744		c-0.528-0.127-1.224-0.192-2.088-0.192H33.26v-2.88h8.64c1.44,0,2.624,0.144,3.552,0.432c0.928,0.288,1.672,0.761,2.232,1.416		c0.56,0.656,0.943,1.504,1.152,2.544c0.208,1.041,0.312,2.296,0.312,3.768v18.48H37.1c-1.44,0-2.625-0.136-3.552-0.408		c-0.928-0.271-1.672-0.672-2.232-1.199c-0.56-0.529-0.944-1.184-1.152-1.969c-0.208-0.783-0.312-1.688-0.312-2.712v-3.407		c0-1.024,0.104-1.928,0.312-2.713c0.208-0.783,0.592-1.439,1.152-1.968c0.56-0.528,1.304-0.928,2.232-1.2		c0.928-0.271,2.112-0.408,3.552-0.408H40.892z"/>	<path d="M58.651,19.057v23.76h-4.896v-26.64h13.152c1.44,0,2.624,0.144,3.552,0.432c0.928,0.288,1.672,0.761,2.232,1.416		c0.56,0.656,0.943,1.504,1.152,2.544c0.208,1.041,0.312,2.296,0.312,3.768v18.48h-4.896V24.145c0-1.056-0.056-1.92-0.168-2.592		c-0.112-0.672-0.312-1.191-0.6-1.56c-0.288-0.367-0.696-0.616-1.224-0.744c-0.528-0.127-1.224-0.192-2.088-0.192H58.651z"/>	<path d="M87.355,19.057c-0.864,0-1.56,0.064-2.088,0.192c-0.528,0.128-0.936,0.376-1.224,0.744c-0.288,0.369-0.488,0.888-0.6,1.56		c-0.113,0.672-0.168,1.536-0.168,2.592v10.704c0,1.056,0.055,1.92,0.168,2.592c0.112,0.672,0.312,1.192,0.6,1.56		c0.288,0.369,0.696,0.617,1.224,0.744c0.528,0.129,1.224,0.192,2.088,0.192h6.336V8.208h4.896v34.608h-12.96		c-1.44,0-2.625-0.145-3.552-0.432c-0.928-0.289-1.672-0.76-2.232-1.416c-0.56-0.656-0.944-1.496-1.152-2.521		c-0.208-1.023-0.312-2.287-0.312-3.792v-10.32c0-1.472,0.104-2.728,0.312-3.768c0.208-1.04,0.592-1.888,1.152-2.544		c0.56-0.655,1.304-1.128,2.232-1.416c0.928-0.288,2.112-0.432,3.552-0.432h5.424v2.88H87.355z"/>	<path d="M116.682,16.176c1.441,0,2.624,0.144,3.553,0.432c0.928,0.288,1.672,0.761,2.232,1.416		c0.559,0.656,0.943,1.504,1.151,2.544c0.208,1.041,0.312,2.296,0.312,3.768v10.32c0,1.505-0.104,2.769-0.312,3.792		c-0.208,1.024-0.593,1.864-1.151,2.521c-0.561,0.656-1.305,1.127-2.232,1.416c-0.929,0.287-2.111,0.432-3.553,0.432h-6.431		c-1.44,0-2.625-0.145-3.552-0.432c-0.928-0.289-1.672-0.76-2.232-1.416c-0.56-0.656-0.944-1.496-1.152-2.521		c-0.208-1.023-0.312-2.287-0.312-3.792v-10.32c0-1.472,0.104-2.728,0.312-3.768c0.208-1.04,0.592-1.888,1.152-2.544		c0.56-0.655,1.304-1.128,2.232-1.416c0.928-0.288,2.112-0.432,3.552-0.432H116.682z M107.898,34.849		c0,1.056,0.055,1.92,0.168,2.592c0.112,0.672,0.312,1.192,0.6,1.56c0.288,0.369,0.696,0.617,1.224,0.744		c0.528,0.129,1.224,0.192,2.088,0.192h2.976c0.864,0,1.56-0.063,2.089-0.192c0.527-0.127,0.936-0.375,1.223-0.744		c0.289-0.367,0.488-0.888,0.601-1.56s0.168-1.536,0.168-2.592V24.145c0-1.056-0.056-1.92-0.168-2.592		c-0.112-0.672-0.312-1.191-0.601-1.56c-0.287-0.367-0.695-0.616-1.223-0.744c-0.529-0.127-1.225-0.192-2.089-0.192h-2.976		c-0.864,0-1.56,0.064-2.088,0.192c-0.528,0.128-0.936,0.376-1.224,0.744c-0.288,0.369-0.488,0.888-0.6,1.56		c-0.113,0.672-0.168,1.536-0.168,2.592V34.849z"/>	<path d="M128.466,20.568c0.208-1.04,0.592-1.888,1.151-2.544c0.561-0.655,1.305-1.128,2.232-1.416s2.112-0.432,3.553-0.432h4.992		v2.88h-3.265c-0.864,0-1.56,0.064-2.088,0.192c-0.528,0.128-0.937,0.376-1.224,0.744c-0.289,0.369-0.488,0.888-0.601,1.56		c-0.112,0.672-0.168,1.536-0.168,2.592v18.672h-4.896v-18.48C128.154,22.865,128.258,21.609,128.466,20.568z"/>	<path d="M151.674,26.833v2.784h-2.063c-0.864,0-1.56,0.064-2.088,0.192s-0.937,0.328-1.224,0.6		c-0.289,0.272-0.488,0.633-0.601,1.08c-0.112,0.449-0.168,1.008-0.168,1.68v3.072c0,0.736,0.056,1.337,0.168,1.801		s0.312,0.84,0.601,1.127c0.287,0.289,0.695,0.488,1.224,0.601s1.224,0.168,2.088,0.168h5.424V24.145		c0-1.056-0.056-1.92-0.168-2.592c-0.112-0.672-0.312-1.191-0.601-1.56c-0.287-0.367-0.695-0.616-1.223-0.744		c-0.529-0.127-1.225-0.192-2.089-0.192h-6.911v-2.88h8.639c1.44,0,2.624,0.144,3.553,0.432c0.928,0.288,1.672,0.761,2.232,1.416		c0.559,0.656,0.943,1.504,1.151,2.544c0.208,1.041,0.312,2.296,0.312,3.768v18.48h-12.047c-1.44,0-2.625-0.136-3.553-0.408		c-0.928-0.271-1.672-0.672-2.232-1.199c-0.56-0.529-0.943-1.184-1.151-1.969c-0.208-0.783-0.312-1.688-0.312-2.712v-3.407		c0-1.024,0.104-1.928,0.312-2.713c0.208-0.783,0.592-1.439,1.151-1.968c0.561-0.528,1.305-0.928,2.232-1.2		c0.928-0.271,2.112-0.408,3.553-0.408H151.674z"/>	<path fill="#1C75BC" d="M186.617,17.816v-5h-10v25h10v-10h-5v-5h10v15h-5v5h-10v-5h-5v-25h5v-5h10v5h5v5H186.617z"/>	<path fill="#00A79D" d="M196.617,32.816h5v5h10v-10h-10v-5h-5v-10h5v-5h10v5h5v5h-5v-5h-10v10h10v5h5v10h-5v5h-10v-5h-5V32.816z"/></g></svg>