<?xml version="1.0" encoding="utf-8"?><!DOCTYPE svg PUBLIC "-//W3C//DTD SVG 1.1//EN" "http://www.w3.org/Graphics/SVG/1.1/DTD/svg11.dtd"><svg version="1.1" xmlns="http://www.w3.org/2000/svg" xmlns:xlink="http://www.w3.org/1999/xlink" x="0px" y="0px" width="196px" height="36px" viewBox="0 0 196 36" enable-background="new 0 0 196 36" xml:space="preserve" role="img" aria-label="Pandora GS"><title>Pandora GS</title><g><linearGradient id="SVGID_1_" gradientUnits="userSpaceOnUse" x1="9.3101" y1="36" x2="9.3101" y2="5.1567"><stop  offset="0.15" style="stop-color:#000000"/><stop  offset="0.2197" style="stop-color:#0C0C0C"/><stop  offset="0.3865" style="stop-color:#232324"/><stop  offset="0.5641" style="stop-color:#343335"/><stop  offset="0.7582" style="stop-color:#3E3D3F"/><stop  offset="1" style="stop-color:#414042"/></linearGradient><path fill="url(#SVGID_1_)" d="M18.62,14.572c0,1.936-0.11,3.506-0.331,4.707c-0.222,1.203-0.604,2.128-1.148,2.772 c-0.544,0.646-1.294,1.078-2.25,1.298c-0.956,0.221-2.17,0.33-3.64,0.33h-4.81v-2.596h4.28c0.647,0,1.191-0.08,1.633-0.242 c0.44-0.16,0.785-0.484,1.036-0.968c0.25-0.483,0.427-1.159,0.53-2.024c0.103-0.864,0.154-1.986,0.154-3.365 s-0.051-2.508-0.154-3.389c-0.103-0.88-0.28-1.562-0.53-2.046c-0.251-0.483-0.596-0.813-1.036-0.989 c-0.442-0.177-0.986-0.265-1.633-0.265H4.632V36H0V5.156h11.251c1.47,0,2.684,0.125,3.64,0.373c0.956,0.25,1.706,0.72,2.25,1.408 c0.544,0.689,0.926,1.65,1.148,2.883C18.509,11.052,18.62,12.637,18.62,14.572z"/><linearGradient id="SVGID_2_" gradientUnits="userSpaceOnUse" x1="27.7974" y1="36" x2="27.7974" y2="11.5806"><stop  offset="0.15" style="stop-color:#000000"/><stop  offset="0.2197" style="stop-color:#0C0C0C"/><stop  offset="0.3865" style="stop-color:#232324"/><stop  offset="0.5641" style="stop-color:#343335"/><stop  offset="0.7582" style="stop-color:#3E3D3F"/><stop  offset="1" style="stop-color:#414042"/></linearGradient><path fill="url(#SVGID_2_)" d="M29.077,21.348V23.9h-1.898c-0.793,0-1.434,0.059-1.919,0.176c-0.485,0.117-0.86,0.301-1.124,0.55 c-0.266,0.249-0.45,0.579-0.553,0.99c-0.104,0.411-0.154,0.924-0.154,1.54v2.816c0,0.674,0.051,1.225,0.154,1.649 c0.103,0.425,0.287,0.771,0.553,1.034c0.264,0.264,0.639,0.447,1.124,0.55c0.486,0.103,1.126,0.153,1.919,0.153h4.986V18.884 c0-0.968-0.052-1.76-0.155-2.376c-0.104-0.615-0.287-1.092-0.551-1.43c-0.265-0.337-0.64-0.564-1.125-0.682 c-0.486-0.117-1.125-0.176-1.919-0.176h-6.354V11.58h7.942c1.324,0,2.411,0.132,3.265,0.396c0.853,0.264,1.538,0.697,2.052,1.297 c0.514,0.602,0.868,1.38,1.059,2.332c0.192,0.954,0.288,2.105,0.288,3.455V36H25.59c-1.324,0-2.412-0.125-3.265-0.374 c-0.854-0.249-1.537-0.616-2.051-1.101c-0.515-0.483-0.869-1.084-1.059-1.803c-0.192-0.719-0.287-1.547-0.287-2.486v-3.125 c0-0.938,0.095-1.766,0.287-2.485c0.19-0.718,0.543-1.319,1.059-1.804c0.514-0.484,1.198-0.851,2.051-1.1 c0.853-0.25,1.941-0.375,3.265-0.375H29.077z"/><linearGradient id="SVGID_3_" gradientUnits="userSpaceOnUse" x1="50.2764" y1="36" x2="50.2764" y2="11.5806"><stop  offset="0.15" style="stop-color:#000000"/><stop  offset="0.2197" style="stop-color:#0C0C0C"/><stop  offset="0.3865" style="stop-color:#232324"/><stop  offset="0.5641" style="stop-color:#343335"/><stop  offset="0.7582" style="stop-color:#3E3D3F"/><stop  offset="1" style="stop-color:#414042"/></linearGradient><path fill="url(#SVGID_3_)" d="M45.401,14.221V36h-4.5V11.58h12.09c1.324,0,2.411,0.132,3.265,0.396 c0.852,0.264,1.537,0.697,2.052,1.297c0.514,0.602,0.867,1.38,1.059,2.332c0.191,0.954,0.287,2.105,0.287,3.455V36h-4.5V18.884 c0-0.968-0.053-1.76-0.155-2.376c-0.104-0.615-0.287-1.092-0.552-1.43c-0.264-0.337-0.639-0.564-1.124-0.682 c-0.486-0.117-1.126-0.176-1.919-0.176H45.401z"/><linearGradient id="SVGID_4_" gradientUnits="userSpaceOnUse" x1="72.8228" y1="36" x2="72.8228" y2="4.2759"><stop  offset="0.15" style="stop-color:#000000"/><stop  offset="0.2197" style="stop-color:#0C0C0C"/><stop  offset="0.3865" style="stop-color:#232324"/><stop  offset="0.5641" style="stop-color:#343335"/><stop  offset="0.7582" style="stop-color:#3E3D3F"/><stop  offset="1" style="stop-color:#414042"/></linearGradient><path fill="url(#SVGID_4_)" d="M71.786,14.221c-0.795,0-1.435,0.059-1.919,0.176c-0.485,0.117-0.86,0.345-1.126,0.682 c-0.264,0.338-0.448,0.814-0.55,1.43c-0.104,0.616-0.155,1.408-0.155,2.376v9.812c0,0.969,0.051,1.761,0.155,2.377 c0.102,0.615,0.286,1.093,0.55,1.43c0.266,0.338,0.641,0.564,1.126,0.682c0.485,0.118,1.125,0.176,1.919,0.176h5.823V4.275h4.501 V36H70.198c-1.324,0-2.413-0.132-3.266-0.396c-0.853-0.264-1.538-0.695-2.052-1.297c-0.515-0.602-0.868-1.371-1.06-2.311 c-0.191-0.938-0.286-2.098-0.286-3.477v-9.459c0-1.35,0.095-2.501,0.286-3.455c0.192-0.952,0.544-1.73,1.06-2.332 c0.514-0.6,1.199-1.033,2.052-1.297c0.853-0.265,1.942-0.396,3.266-0.396h4.985v2.641H71.786z"/><linearGradient id="SVGID_5_" gradientUnits="userSpaceOnUse" x1="95.7876" y1="36" x2="95.7876" y2="11.5806"><stop  offset="0.15" style="stop-color:#000000"/><stop  offset="0.2197" style="stop-color:#0C0C0C"/><stop  offset="0.3865" style="stop-color:#232324"/><stop  offset="0.5641" style="stop-color:#343335"/><stop  offset="0.7582" style="stop-color:#3E3D3F"/><stop  offset="1" style="stop-color:#414042"/></linearGradient><path fill="url(#SVGID_5_)" d="M98.744,11.58c1.324,0,2.411,0.132,3.265,0.396c0.853,0.264,1.536,0.697,2.052,1.297 c0.514,0.602,0.866,1.38,1.059,2.332c0.191,0.954,0.287,2.105,0.287,3.455v9.459c0,1.379-0.096,2.538-0.287,3.477 c-0.192,0.939-0.545,1.709-1.059,2.311c-0.516,0.602-1.199,1.033-2.052,1.297C101.154,35.868,100.067,36,98.744,36h-5.913 c-1.324,0-2.412-0.132-3.265-0.396c-0.854-0.264-1.538-0.695-2.052-1.297c-0.515-0.602-0.869-1.371-1.059-2.311 c-0.192-0.938-0.287-2.098-0.287-3.477v-9.459c0-1.35,0.095-2.501,0.287-3.455c0.19-0.952,0.543-1.73,1.059-2.332 c0.514-0.6,1.198-1.033,2.052-1.297c0.853-0.265,1.941-0.396,3.265-0.396H98.744z M90.668,28.695c0,0.969,0.051,1.761,0.155,2.377 c0.103,0.615,0.287,1.093,0.552,1.43c0.265,0.338,0.64,0.564,1.125,0.682c0.485,0.118,1.126,0.176,1.919,0.176h2.736 c0.794,0,1.434-0.058,1.919-0.176c0.486-0.117,0.86-0.344,1.125-0.682c0.265-0.337,0.448-0.814,0.552-1.43 c0.103-0.616,0.155-1.408,0.155-2.377v-9.812c0-0.968-0.053-1.76-0.155-2.376c-0.104-0.615-0.287-1.092-0.552-1.43 c-0.265-0.337-0.639-0.564-1.125-0.682c-0.485-0.117-1.125-0.176-1.919-0.176h-2.736c-0.793,0-1.434,0.059-1.919,0.176 c-0.485,0.117-0.86,0.345-1.125,0.682c-0.265,0.338-0.449,0.814-0.552,1.43c-0.104,0.616-0.155,1.408-0.155,2.376V28.695z"/><linearGradient id="SVGID_6_" gradientUnits="userSpaceOnUse" x1="114.9141" y1="36" x2="114.9141" y2="11.5806"><stop  offset="0.15" style="stop-color:#000000"/><stop  offset="0.2197" style="stop-color:#0C0C0C"/><stop  offset="0.3865" style="stop-color:#232324"/><stop  offset="0.5641" style="stop-color:#343335"/><stop  offset="0.7582" style="stop-color:#3E3D3F"/><stop  offset="1" style="stop-color:#414042"/></linearGradient><path fill="url(#SVGID_6_)" d="M109.574,15.605c0.192-0.952,0.545-1.73,1.06-2.332c0.515-0.6,1.199-1.033,2.052-1.297 c0.853-0.265,1.941-0.396,3.265-0.396h4.589v2.641h-3c-0.795,0-1.435,0.059-1.92,0.176c-0.484,0.117-0.86,0.345-1.125,0.682 c-0.265,0.338-0.448,0.814-0.551,1.43c-0.104,0.616-0.154,1.408-0.154,2.376V36h-4.501V19.061 C109.288,17.711,109.383,16.56,109.574,15.605z"/><linearGradient id="SVGID_7_" gradientUnits="userSpaceOnUse" x1="129.6289" y1="36" x2="129.6289" y2="11.5806"><stop  offset="0.15" style="stop-color:#000000"/><stop  offset="0.2197" style="stop-color:#0C0C0C"/><stop  offset="0.3865" style="stop-color:#232324"/><stop  offset="0.5641" style="stop-color:#343335"/><stop  offset="0.7582" style="stop-color:#3E3D3F"/><stop  offset="1" style="stop-color:#414042"/></linearGradient><path fill="url(#SVGID_7_)" d="M130.909,21.348V23.9h-1.898c-0.793,0-1.434,0.059-1.919,0.176s-0.86,0.301-1.124,0.55 c-0.266,0.249-0.45,0.579-0.553,0.99c-0.104,0.411-0.154,0.924-0.154,1.54v2.816c0,0.674,0.051,1.225,0.154,1.649 c0.103,0.425,0.287,0.771,0.553,1.034c0.264,0.264,0.639,0.447,1.124,0.55s1.126,0.153,1.919,0.153h4.986V18.884 c0-0.968-0.052-1.76-0.154-2.376c-0.104-0.615-0.287-1.092-0.552-1.43c-0.265-0.337-0.64-0.564-1.125-0.682 s-1.125-0.176-1.919-0.176h-6.354V11.58h7.941c1.324,0,2.411,0.132,3.265,0.396c0.854,0.264,1.538,0.697,2.052,1.297 c0.515,0.602,0.868,1.38,1.059,2.332c0.192,0.954,0.288,2.105,0.288,3.455V36h-11.075c-1.324,0-2.412-0.125-3.266-0.374 s-1.537-0.616-2.051-1.101c-0.516-0.483-0.869-1.084-1.059-1.803c-0.192-0.719-0.287-1.547-0.287-2.486v-3.125 c0-0.938,0.095-1.766,0.287-2.485c0.189-0.718,0.543-1.319,1.059-1.804c0.514-0.484,1.197-0.851,2.051-1.1 c0.854-0.25,1.941-0.375,3.266-0.375H130.909z"/><path fill="#1C75BC" d="M165,11V6h-10v25h10V21h-5v-5h10v15h-5v5h-10v-5h-5V6h5V1h10v5h5v5H165z"/><path fill="#00A79D" d="M175,26h5v5h10V21h-10v-5h-5V6h5V1h10v5h5v5h-5V6h-10v10h10v5h5v10h-5v5h-10v-5h-5V26z"/></g></svg>