<?xml version="1.0" encoding="utf-8"?><!DOCTYPE svg PUBLIC "-//W3C//DTD SVG 1.1//EN" "http://www.w3.org/Graphics/SVG/1.1/DTD/svg11.dtd"><svg version="1.1" xmlns="http://www.w3.org/2000/svg" xmlns:xlink="http://www.w3.org/1999/xlink" x="0px" y="0px"	 width="210px" height="40px" viewBox="0 0 210 40" enable-background="new 0 0 210 40" xml:space="preserve" role="img" aria-label="Pandora GS"><title>Pandora GS</title><g>	<path d="M21.897,13.624c0,2.112-0.119,3.824-0.359,5.136c-0.24,1.313-0.656,2.32-1.248,3.024s-1.408,1.176-2.447,1.416		c-1.041,0.239-2.361,0.36-3.961,0.36H8.65v-2.833h4.655c0.704,0,1.297-0.088,1.776-0.264c0.479-0.175,0.856-0.528,1.128-1.056		c0.271-0.528,0.464-1.264,0.576-2.208c0.111-0.944,0.168-2.167,0.168-3.672c0-1.503-0.057-2.736-0.168-3.696		c-0.112-0.96-0.305-1.704-0.576-2.232c-0.271-0.528-0.648-0.888-1.128-1.08s-1.072-0.288-1.776-0.288H6.683V37H1.642V3.352h12.24		c1.6,0,2.92,0.136,3.961,0.408c1.039,0.272,1.855,0.785,2.447,1.536c0.592,0.752,1.008,1.8,1.248,3.144		C21.778,9.784,21.897,11.512,21.897,13.624z"/>	<path d="M33.274,21.016V23.8H31.21c-0.863,0-1.56,0.064-2.088,0.192c-0.527,0.128-0.936,0.328-1.224,0.6		c-0.288,0.272-0.488,0.633-0.601,1.08c-0.111,0.449-0.168,1.008-0.168,1.68v3.072c0,0.736,0.057,1.337,0.168,1.801		c0.112,0.464,0.313,0.84,0.601,1.127c0.288,0.289,0.696,0.488,1.224,0.601c0.528,0.112,1.225,0.168,2.088,0.168h5.424V18.328		c0-1.056-0.056-1.92-0.168-2.592c-0.111-0.672-0.312-1.191-0.6-1.56c-0.287-0.367-0.695-0.616-1.224-0.744		c-0.528-0.127-1.224-0.192-2.089-0.192h-6.911v-2.88h8.64c1.439,0,2.623,0.144,3.553,0.432c0.928,0.288,1.672,0.761,2.231,1.416		c0.56,0.656,0.943,1.504,1.151,2.544c0.209,1.041,0.313,2.296,0.313,3.768V37H29.482c-1.44,0-2.624-0.136-3.552-0.408		c-0.929-0.271-1.673-0.672-2.232-1.199c-0.561-0.529-0.944-1.184-1.152-1.969c-0.208-0.783-0.312-1.688-0.312-2.712v-3.407		c0-1.024,0.104-1.928,0.312-2.713c0.208-0.783,0.592-1.439,1.152-1.968c0.56-0.528,1.304-0.928,2.232-1.2		c0.928-0.271,2.111-0.408,3.552-0.408H33.274z"/>	<path d="M51.033,13.24V37h-4.896V10.36h13.151c1.44,0,2.624,0.144,3.552,0.432s1.672,0.761,2.232,1.416		c0.56,0.656,0.943,1.504,1.152,2.544c0.207,1.041,0.312,2.296,0.312,3.768V37h-4.896V18.328c0-1.056-0.057-1.92-0.168-2.592		c-0.113-0.672-0.313-1.191-0.6-1.56c-0.289-0.367-0.697-0.616-1.225-0.744c-0.528-0.127-1.225-0.192-2.088-0.192H51.033z"/>	<path d="M79.737,13.24c-0.864,0-1.561,0.064-2.088,0.192c-0.528,0.128-0.937,0.376-1.225,0.744c-0.287,0.369-0.488,0.888-0.6,1.56		c-0.113,0.672-0.168,1.536-0.168,2.592v10.704c0,1.056,0.055,1.92,0.168,2.592c0.111,0.672,0.313,1.192,0.6,1.56		c0.288,0.369,0.696,0.617,1.225,0.744c0.527,0.129,1.224,0.192,2.088,0.192h6.336V2.392h4.896V37H78.009		c-1.439,0-2.624-0.145-3.552-0.432c-0.929-0.289-1.673-0.76-2.231-1.416c-0.561-0.656-0.945-1.496-1.152-2.521		c-0.209-1.023-0.313-2.287-0.313-3.792V18.52c0-1.472,0.104-2.728,0.313-3.768c0.207-1.04,0.592-1.888,1.152-2.544		c0.559-0.655,1.303-1.128,2.231-1.416c0.928-0.288,2.112-0.432,3.552-0.432h5.424v2.88H79.737z"/>	<path d="M109.063,10.36c1.441,0,2.624,0.144,3.553,0.432c0.928,0.288,1.672,0.761,2.232,1.416c0.559,0.656,0.943,1.504,1.151,2.544		c0.208,1.041,0.312,2.296,0.312,3.768v10.32c0,1.505-0.104,2.769-0.312,3.792c-0.208,1.024-0.593,1.864-1.151,2.521		c-0.561,0.656-1.305,1.127-2.232,1.416c-0.929,0.287-2.111,0.432-3.553,0.432h-6.432c-1.439,0-2.624-0.145-3.552-0.432		c-0.929-0.289-1.673-0.76-2.231-1.416c-0.561-0.656-0.945-1.496-1.152-2.521c-0.209-1.023-0.313-2.287-0.313-3.792V18.52		c0-1.472,0.104-2.728,0.313-3.768c0.207-1.04,0.592-1.888,1.152-2.544c0.559-0.655,1.303-1.128,2.231-1.416		c0.928-0.288,2.112-0.432,3.552-0.432H109.063z M100.28,29.032c0,1.056,0.055,1.92,0.168,2.592c0.111,0.672,0.313,1.192,0.6,1.56		c0.288,0.369,0.696,0.617,1.225,0.744c0.527,0.129,1.224,0.192,2.088,0.192h2.976c0.864,0,1.56-0.063,2.089-0.192		c0.527-0.127,0.936-0.375,1.223-0.744c0.289-0.367,0.488-0.888,0.601-1.56s0.168-1.536,0.168-2.592V18.328		c0-1.056-0.056-1.92-0.168-2.592c-0.112-0.672-0.312-1.191-0.601-1.56c-0.287-0.367-0.695-0.616-1.223-0.744		c-0.529-0.127-1.225-0.192-2.089-0.192h-2.976c-0.864,0-1.561,0.064-2.088,0.192c-0.528,0.128-0.937,0.376-1.225,0.744		c-0.287,0.369-0.488,0.888-0.6,1.56c-0.113,0.672-0.168,1.536-0.168,2.592V29.032z"/>	<path d="M120.849,14.752c0.207-1.04,0.592-1.888,1.151-2.544c0.56-0.655,1.304-1.128,2.231-1.416s2.113-0.432,3.553-0.432h4.992		v2.88h-3.264c-0.865,0-1.561,0.064-2.088,0.192c-0.529,0.128-0.937,0.376-1.225,0.744c-0.288,0.369-0.488,0.888-0.6,1.56		c-0.113,0.672-0.168,1.536-0.168,2.592V37h-4.896V18.52C120.536,17.048,120.64,15.792,120.849,14.752z"/>	<path d="M144.057,21.016V23.8h-2.063c-0.865,0-1.561,0.064-2.088,0.192c-0.529,0.128-0.937,0.328-1.225,0.6		c-0.288,0.272-0.488,0.633-0.6,1.08c-0.113,0.449-0.168,1.008-0.168,1.68v3.072c0,0.736,0.055,1.337,0.168,1.801		c0.111,0.464,0.312,0.84,0.6,1.127c0.288,0.289,0.695,0.488,1.225,0.601c0.527,0.112,1.223,0.168,2.088,0.168h5.424V18.328		c0-1.056-0.057-1.92-0.168-2.592c-0.113-0.672-0.313-1.191-0.601-1.56c-0.288-0.367-0.696-0.616-1.224-0.744		c-0.528-0.127-1.225-0.192-2.088-0.192h-6.912v-2.88h8.64c1.44,0,2.624,0.144,3.552,0.432s1.672,0.761,2.232,1.416		c0.56,0.656,0.943,1.504,1.152,2.544c0.207,1.041,0.312,2.296,0.312,3.768V37h-12.048c-1.439,0-2.625-0.136-3.553-0.408		c-0.928-0.271-1.672-0.672-2.231-1.199c-0.56-0.529-0.944-1.184-1.151-1.969c-0.209-0.783-0.313-1.688-0.313-2.712v-3.407		c0-1.024,0.104-1.928,0.313-2.713c0.207-0.783,0.592-1.439,1.151-1.968s1.304-0.928,2.231-1.2c0.928-0.271,2.113-0.408,3.553-0.408		H144.057z"/>	<path fill="#1C75BC" d="M179,12V7h-10v25h10V22h-5v-5h10v15h-5v5h-10v-5h-5V7h5V2h10v5h5v5H179z"/>	<path fill="#00A79D" d="M189,27h5v5h10V22h-10v-5h-5V7h5V2h10v5h5v5h-5V7h-10v10h10v5h5v10h-5v5h-10v-5h-5V27z"/></g></svg>